<svg width="64" height="64" viewBox="0 0 64 64" fill="none" xmlns="http://www.w3.org/2000/svg">
<rect width="64" height="64" fill="#0A0A0A"/>
<path d="M16 24L32 8L48 24L40 24L40 32L24 32L24 24L16 24Z" fill="#FFD700"/>
<path d="M24 32L24 40L40 40L40 32L24 32Z" fill="#FFD700"/>
<path d="M20 40L20 48L44 48L44 40L20 40Z" fill="#C0C0C0"/>
<circle cx="20" cy="22" r="2" fill="#FFFFFF"/>
<circle cx="32" cy="10" r="2" fill="#FFFFFF"/>
<circle cx="44" cy="22" r="2" fill="#FFFFFF"/>
<path d="M24 32L32 36L40 32" stroke="#B08D57" stroke-width="2"/>
<path d="M16 24L32 8L48 24" stroke="#B08D57" stroke-width="2"/>
<path d="M20 40H44" stroke="#B08D57" stroke-width="2"/>
</svg>
